# AST/ASF file generated using VICON BodyLanguage
# -----------------------------------------------
:version 1.10
:name VICON
:units
  mass 1.0
  length 0.45
  angle deg
:documentation
   .ast/.asf automatically generated from VICON data using
   VICON BodyBuilder and BodyLanguage model FoxedUp or BRILLIANT.MOD
:root
   order TX TY TZ RX RY RZ
   axis XYZ
   position 0 0 0  
   orientation 0 0 0 
:bonedata
  begin
     id 1 
     name lhipjoint
     direction 0.630305 -0.712092 0.309259 
     length 2.29033 
     axis 0 0 0  XYZ
  end
  begin
     id 2 
     name lfemur
     direction 0.34202 -0.939693 0  
     length 6.43538  
     axis 0 0 20  XYZ
    dof rx ry rz
    limits (-160.0 20.0)
           (-70.0 70.0)
           (-60.0 70.0)
  end
  begin
     id 3 
     name ltibia
     direction 0.34202 -0.939693 0   
     length 7.43097   
     axis 0 0 20   XYZ
    dof rx
    limits (-10.0 170.0)
  end
  begin
     id 4 
     name lfoot
     direction 0.0334653 -0.0919451 0.995202   
     length 1.78438   
     axis -90 7.62852e-016 20   XYZ
    dof rx rz
    limits (-45.0 90.0)
           (-70.0 20.0)
  end
  begin
     id 5 
     name ltoes
     direction 1.53535e-011 -4.21933e-011 1   
     length 0.90832   
     axis -90 7.62852e-016 20   XYZ
    dof rx
    limits (-90.0 20.0)
  end
  begin
     id 6 
     name rhipjoint
     direction -0.682059 -0.67077 0.291312   
     length 2.43143  
     axis 0 0 0  XYZ 
  end
  begin
     id 7 
     name rfemur
     direction -0.34202 -0.939693 0   
     length 6.63488   
     axis 0 0 -20   XYZ
    dof rx ry rz
    limits (-160.0 20.0)
           (-70.0 70.0)
           (-70.0 60.0)
  end
  begin
     id 8 
     name rtibia
     direction -0.34202 -0.939693 0   
     length 6.86532   
     axis 0 0 -20   XYZ
    dof rx
    limits (-10.0 170.0)
 end
 begin
     id 9 
     name rfoot
     direction -0.105199 -0.289033 0.951521   
     length 1.77126  
     axis -90 -7.62852e-016 -20   XYZ
    dof rx rz
    limits (-45.0 90.0)
           (-20.0 70.0)
  end
  begin
     id 10 
     name rtoes
     direction -1.53551e-011 -4.21978e-011 1   
     length 0.889273   
     axis -90 -7.62852e-016 -20   XYZ
    dof rx
    limits (-90.0 20.0)
  end
  begin
     id 11 
     name lowerback
     direction -0.0514305 0.998089 0.034245   
     length 2.02077   
     axis 0 0 0   XYZ
    dof rx ry rz
    limits (-20.0 45.0)
           (-30.0 30.0)
           (-30.0 30.0)
  end
  begin
     id 12 
     name upperback
     direction 0.0203189 0.999449 -0.0262315   
     length 2.01413   
     axis 0 0 0   XYZ
    dof rx ry rz
    limits (-20.0 45.0)
           (-30.0 30.0)
           (-30.0 30.0)
  end
  begin
     id 13 
     name thorax
     direction 0.0452736 0.998142 -0.0407729   
     length 2.02986   
     axis 0 0 0   XYZ
    dof rx ry rz
    limits (-20.0 45.0)
           (-30.0 30.0)
           (-30.0 30.0)
  end
  begin
     id 14 
     name lowerneck
     direction -0.0180464 0.999645 -0.0195774   
     length 1.59034   
     axis 0 0 0   XYZ
    dof rx ry rz
    limits (-20.0 45.0)
           (-30.0 30.0)
           (-30.0 30.0)
  end
  begin
     id 15 
     name upperneck
     direction 0.0732272 0.979935 -0.18538   
     length 1.57486   
     axis 0 0 0   XYZ
    dof rx ry rz
    limits (-20.0 45.0)
           (-30.0 30.0)
           (-30.0 30.0)
  end
  begin
     id 16
     name head
     direction 0.0252963 0.997909 -0.059472  
     length 1.60334  
     axis 0 0 0   XYZ
    dof rx ry rz
    limits (-20.0 45.0)
           (-30.0 30.0)
           (-30.0 30.0)
  end
  begin
     id 17 
     name lclavicle
     direction 0.943819 0.330449 0.00315172  
     length 3.50322  
     axis 0 0 0   XYZ
    dof ry rz
    limits (-20.0 10.0)
           (0.0 20.0)
  end
  begin
     id 18 
     name lhumerus
     direction 1 -4.48949e-011 2.22502e-028   
     length 4.63208   
     axis 180 -30 -90   XYZ
    dof rx ry rz
    limits (-60.0 90.0)
           (-90.0 90.0)
           (-90.0 90.0)
  end
  begin
     id 19
     name lradius
     direction 1 -4.48967e-011 -4.10197e-027   
     length 3.41924   
     axis 180 -30 -90   XYZ
    dof rx
    limits (-10.0 170.0)
  end
  begin
     id 20
     name lwrist
     direction 1 -4.48987e-011 -1.24264e-027   
     length 1.70962   
     axis 2.50585e-015 90 90   XYZ
    dof ry
    limits (-180.0 0.0)
 end
  begin
     id 21 
     name lhand
     direction 1 -4.48983e-011 -2.48528e-027   
     length 0.62537   
     axis 1.58582e-015 90 90   XYZ
    dof rx rz
    limits (-90.0 90.0)
           (-45.0 45.0)
  end
  begin
     id 22 
     name lfingers
     direction 1 -4.48896e-011 -4.97056e-027   
     length 0.50419   
     axis 3.17164e-015 90 90   XYZ
    dof rx
    limits (0.0 90.0)
  end
  begin
     id 23
     name lthumb
     direction 0.707107 -6.34803e-011 0.707107   
     length 0.723919   
     axis -90 45 2.85299e-015   XYZ
    dof rx rz
    limits (-45.0 45.0)
           (-45.0 45.0)
  end
  begin
     id 24 
     name rclavicle
     direction -0.964499 0.260664 -0.0423695   
     length 3.91997  
     axis 0 0 0   XYZ 
    dof ry rz
    limits (-10.0 20.0)
           (-20.0 0.0)
  end
  begin
     id 25 
     name rhumerus
     direction -1 -4.48957e-011 -1.98656e-027  
     length 4.4064   
     axis 180 30 90   XYZ
    dof rx ry rz
    limits (-90.0 60.0)
           (-90.0 90.0)
           (-90.0 90.0)
  end
  begin
     id 26 
     name rradius
     direction -1 -4.48968e-011 1.96972e-027   
     length 3.44675   
     axis 180 30 90   XYZ
    dof rx
    limits (-10.0 170.0)
  end
  begin
     id 27 
     name rwrist
     direction -1 -4.48974e-011 -1.24264e-027   
     length 1.72338   
     axis 2.50585e-015 -90 -90   XYZ
    dof ry
    limits (-180.0 0.0)
  end
  begin
     id 28
     name rhand
     direction -1 -4.48901e-011 -2.48528e-027   
     length 0.513674   
     axis 1.58582e-015 -90 -90   XYZ
    dof rx rz
    limits (-90.0 90.0)
           (-45.0 45.0)
  end
  begin
     id 29
     name rfingers
     direction -1 -4.48946e-011 -4.97056e-027   
     length 0.414137   
     axis 3.17164e-015 -90 -90   XYZ
    dof rx
    limits (0.0 90.0)
  end
  begin
     id 30
     name rthumb
     direction -0.707107 -6.34859e-011 0.707107   
     length 0.59462   
     axis -90 -45 -2.85299e-015   XYZ
    dof rx rz
    limits (-45.0 45.0)
           (-45.0 45.0)
  end
:hierarchy
  begin
    root lhipjoint rhipjoint lowerback
    lhipjoint lfemur
    lfemur ltibia
    ltibia lfoot
    lfoot ltoes
    rhipjoint rfemur
    rfemur rtibia
    rtibia rfoot
    rfoot rtoes
    lowerback upperback
    upperback thorax
    thorax lowerneck lclavicle rclavicle
    lowerneck upperneck
    upperneck head
    lclavicle lhumerus
    lhumerus lradius
    lradius lwrist
    lwrist lhand lthumb
    lhand lfingers
    rclavicle rhumerus
    rhumerus rradius
    rradius rwrist
    rwrist rhand rthumb
    rhand rfingers
  end

#!OML:ASF E:\inclinewalkrobotboard\Project 1\Capture day 1\Session 1\subject1.ASF
:FULLY-SPECIFIED
:DEGREES
51
root 8.04004 11.8662 8.86884 -158.132 -48.1551 159.661
lowerback 23.6516 4.56646 2.29011
upperback 2.51551 6.93378 9.1817
thorax -11.3705 3.10731 6.83653
lowerneck -6.08935 5.73207 -2.17425
upperneck -22.2076 4.77632 -9.00411
head -5.55299 2.30807 -2.55483
rclavicle 7.95139e-015 -1.90833e-014
rhumerus 7.04322 -26.6076 -61.1196
rradius 46.4256
rwrist -45.5017
rhand -1.35257 -15.3468
rfingers 7.12502
rthumb 24.2942 -43.8274
lclavicle 7.95139e-015 -1.90833e-014
lhumerus 13.9989 33.3646 22.3201
lradius 112.988
lwrist -18.913
lhand -51.4267 -33.6479
lfingers 7.12502
lthumb -23.9578 -5.12266
rfemur -61.0364 -10.0217 -14.874
rtibia 84.6418
rfoot -28.0221 10.5267
rtoes -45.7091
lfemur -43.7879 0.623022 -28.2296
ltibia 100.489
lfoot -31.5739 7.87928
ltoes -71.5585
52
root 7.99697 12.0329 8.81002 -157.763 -47.9033 159.576
lowerback 23.2121 4.57058 2.26999
upperback 2.34736 6.94062 9.2578
thorax -11.3392 3.12396 6.94984
lowerneck -6.3223 5.77955 -2.023
upperneck -21.8179 4.84153 -9.30791
head -5.37224 2.33433 -2.66157
rclavicle 9.22361e-014 6.99722e-014
rhumerus 7.31972 -26.6069 -61.1584
rradius 45.9841
rwrist -45.4341
rhand -2.18729 -14.6842
rfingers 7.12502
rthumb 23.4937 -43.2696
lclavicle 9.22361e-014 6.99722e-014
lhumerus 14.9071 33.2846 22.7399
lradius 112.144
lwrist -18.7228
lhand -51.4005 -33.4746
lfingers 7.12502
lthumb -23.9327 -4.94613
rfemur -60.1177 -9.61551 -14.7031
rtibia 83.044
rfoot -27.624 10.3235
rtoes -44.8999
lfemur -42.7958 0.470783 -28.388
ltibia 98.3658
lfoot -30.9466 8.07093
ltoes -71.5157
53
root 7.95031 12.2014 8.74949 -157.327 -47.7317 159.427
lowerback 22.7136 4.52212 2.27595
upperback 2.18286 6.87704 9.30107
thorax -11.2531 3.10596 7.03511
lowerneck -6.54604 5.78677 -2.05466
upperneck -21.5754 4.87788 -9.32217
head -5.25839 2.34393 -2.64988
rclavicle 6.99722e-014 1.11319e-013
rhumerus 7.69779 -26.7858 -61.399
rradius 45.5402
rwrist -45.2792
rhand 1.02044 -17.177
rfingers 7.12502
rthumb 26.5674 -45.3337
lclavicle 6.99722e-014 1.11319e-013
lhumerus 15.4602 33.4269 22.9388
lradius 111.604
lwrist -18.3512
lhand -51.353 -33.2603
lfingers 7.12502
lthumb -23.8872 -4.72587
rfemur -59.1211 -9.23237 -14.5721
rtibia 81.4154
rfoot -27.055 10.2706
rtoes -43.4355
lfemur -41.8018 0.214758 -28.5935
ltibia 96.1947
lfoot -30.224 8.31076
ltoes -71.4846
54
root 7.90572 12.375 8.68217 -157.025 -47.4763 159.377
lowerback 22.2618 4.54099 2.19939
upperback 2.05314 6.8811 9.36807
thorax -11.1736 3.12268 7.17132
lowerneck -6.87257 5.73581 -2.13695
upperneck -21.2956 4.87003 -9.16043
head -5.12595 2.32342 -2.57058
rclavicle -6.04305e-014 6.36111e-014
rhumerus 8.04178 -26.9971 -61.6214
rradius 45.1906
rwrist -45.2373
rhand -3.59583 -13.4031
rfingers 7.12502
rthumb 22.142 -42.1551
lclavicle -6.04305e-014 6.36111e-014
lhumerus 15.9328 33.4161 22.9272
lradius 111.046
lwrist -18.2696
lhand -51.3522 -33.3336
lfingers 7.12502
lthumb -23.8864 -4.799
rfemur -58.1279 -8.81681 -14.321
rtibia 79.7478
rfoot -26.5637 9.98866
rtoes -42.772
lfemur -40.7137 0.140869 -28.7262
ltibia 93.9612
lfoot -29.4909 8.49261
ltoes -71.4849
55
root 7.863 12.5514 8.60927 -156.862 -47.1605 159.472
lowerback 21.8671 4.57723 2.14847
upperback 1.90966 6.91877 9.42487
thorax -11.1398 3.15303 7.2685
lowerneck -7.2068 5.6945 -2.10377
upperneck -20.9496 4.87682 -9.05151
head -4.96485 2.30544 -2.52591
rclavicle 2.22639e-014 -1.94014e-013
rhumerus 8.23332 -26.9847 -61.8033
rradius 44.8845
rwrist -45.1608
rhand 1.42622 -17.8473
rfingers 7.12502
rthumb 26.9557 -45.9446
lclavicle 2.22639e-014 -1.94014e-013
lhumerus 16.4742 33.4032 22.7295
lradius 110.356
lwrist -18.3097
lhand -51.2283 -33.3165
lfingers 7.12502
lthumb -23.7676 -4.76646
rfemur -57.1234 -8.20303 -13.9916
rtibia 78.0328
rfoot -26.3418 9.09327
rtoes -43.6075
lfemur -39.5541 0.1678 -28.7243
ltibia 91.6586
lfoot -28.7457 8.6315
ltoes -71.4698
56
root 7.81774 12.7313 8.53274 -156.683 -46.8443 159.51
lowerback 21.5028 4.54346 2.11857
upperback 1.75273 6.86953 9.43513
thorax -11.1169 3.14076 7.32717
lowerneck -7.32223 5.76158 -1.8091
upperneck -20.7832 4.96733 -9.15375
head -4.87517 2.32704 -2.60058
rclavicle 5.40694e-014 2.54444e-014
rhumerus 8.51898 -26.9056 -62.155
rradius 44.4809
rwrist -44.8719
rhand 20.2237 -37.9612
rfingers 7.12502
rthumb 44.7434 -61.5611
lclavicle 5.40694e-014 2.54444e-014
lhumerus 16.8639 33.6492 22.1916
lradius 109.699
lwrist -17.9928
lhand -51.0962 -33.3312
lfingers 7.12502
lthumb -23.6409 -4.76476
rfemur -56.0453 -7.62366 -13.6945
rtibia 76.2854
rfoot -26.1788 7.97359
rtoes -44.8696
lfemur -38.2961 0.148863 -28.7573
ltibia 89.2455
lfoot -27.908 8.81016
ltoes -71.4493
57
root 7.77316 12.9116 8.45057 -156.487 -46.4923 159.458
lowerback 21.1833 4.5719 1.96907
upperback 1.63293 6.8761 9.50261
thorax -11.1063 3.16108 7.50259
lowerneck -7.39635 5.83004 -1.53857
upperneck -20.6542 5.03798 -9.35326
head -4.80212 2.34588 -2.70298
rclavicle 7.15625e-014 -4.45278e-014
rhumerus 8.89814 -26.9212 -62.3372
rradius 44.0117
rwrist -44.6729
rhand 0.0921213 -16.63
rfingers 7.12502
rthumb 25.6786 -44.918
lclavicle 7.15625e-014 -4.45278e-014
lhumerus 17.1463 33.9776 21.6787
lradius 109.162
lwrist -17.4831
lhand -51.1882 -33.3906
lfingers 7.12502
lthumb -23.7291 -4.83555
rfemur -54.9474 -7.0833 -13.4455
rtibia 74.5352
rfoot -25.8892 7.03796
rtoes -45.6756
lfemur -36.9114 0.154387 -28.8383
ltibia 86.7359
lfoot -27.0242 8.98886
ltoes -71.4448
58
root 7.73093 13.089 8.36335 -156.217 -46.2225 159.392
lowerback 20.7933 4.61256 1.80018
upperback 1.51421 6.89188 9.59647
thorax -11.0623 3.18787 7.71965
lowerneck -7.61197 5.86242 -1.38729
upperneck -20.419 5.08783 -9.47689
head -4.68139 2.35444 -2.75586
rclavicle -1.06549e-013 -1.33583e-013
rhumerus 9.3273 -26.965 -62.4056
rradius 43.4335
rwrist -44.4807
rhand -1.18436 -15.1708
rfingers 7.12502
rthumb 24.4555 -43.6297
lclavicle -1.06549e-013 -1.33583e-013
lhumerus 17.8828 34.1095 21.5966
lradius 108.315
lwrist -17.4329
lhand -51.3701 -32.9905
lfingers 7.12502
lthumb -23.9036 -4.45815
rfemur -53.8594 -6.61876 -13.1878
rtibia 72.7615
rfoot -25.4448 6.58309
rtoes -45.0405
lfemur -35.5776 0.109074 -28.8811
ltibia 84.172
lfoot -26.1282 9.17414
ltoes -71.4234
59
root 7.68989 13.2611 8.27381 -155.805 -46.0818 159.305
lowerback 20.2778 4.58411 1.71094
upperback 1.34899 6.83135 9.68798
thorax -10.9794 3.17589 7.91667
lowerneck -7.9254 5.82685 -1.47574
upperneck -20.1387 5.08256 -9.40747
head -4.55021 2.33978 -2.70553
rclavicle 6.52014e-014 1.94014e-013
rhumerus 9.79021 -27.0653 -62.5401
rradius 42.8119
rwrist -44.141
rhand 4.35959 -21.3769
rfingers 7.12502
rthumb 29.759 -49.0076
lclavicle 6.52014e-014 1.94014e-013
lhumerus 18.8223 34.0957 21.6979
lradius 107.265
lwrist -17.4803
lhand -51.3519 -32.7241
lfingers 7.12502
lthumb -23.8861 -4.18951
rfemur -52.8228 -6.43672 -12.884
rtibia 70.9785
rfoot -24.9714 6.42474
rtoes -43.6919
lfemur -34.4259 -0.0422453 -28.9197
ltibia 81.6056
lfoot -25.1836 9.42148
ltoes -71.4021
